<?xml version="1.0" encoding="UTF-8" standalone="no"?>
<!DOCTYPE svg PUBLIC "-//W3C//DTD SVG 1.1//EN" "http://www.w3.org/Graphics/SVG/1.1/DTD/svg11.dtd">
<svg width="100%" height="100%" viewBox="0 0 144 144" version="1.1" xmlns="http://www.w3.org/2000/svg" xmlns:xlink="http://www.w3.org/1999/xlink" xml:space="preserve" xmlns:serif="http://www.serif.com/" style="fill-rule:evenodd;clip-rule:evenodd;stroke-linecap:round;stroke-linejoin:round;stroke-miterlimit:1;">
    <g transform="matrix(1.152,0,0,1.152,14.4,0)">
        <path d="M19.078,80.358L2.463,107.825L9.113,115.211L20.479,117.73L88.127,117.016L96.824,113.069L93.717,106.815L82.646,80.887L71.648,87.741L61.603,87.963L50.344,81.769L36.797,75.475L28.157,76.215" style="fill:rgb(29,155,240);stroke:rgb(77,77,77);stroke-width:1px;"/>
    </g>
    <g transform="matrix(1.62097,0,0,1.4638,-9.04938,-1394.76)">
        <path d="M64,971.362L36,971.362L36.367,984.956L16.076,1031.32C16.076,1031.32 14,1036.07 14,1038.36C14,1040.9 14.838,1043.28 16.625,1044.92C18.412,1046.57 20.952,1047.36 24,1047.36L76,1047.36C79.049,1047.36 81.588,1046.57 83.375,1044.92C85.162,1043.28 86.033,1040.9 86,1038.36C85.965,1035.68 83.75,1031.36 83.75,1031.36L63.634,984.956L64,971.362ZM40,971.362L60,971.362L59.624,985.515L72.875,1016.02C70.782,1017.84 69.218,1018.9 67.844,1019.49C66.195,1020.19 64.594,1020.36 61.969,1020.36C58.427,1020.36 55.013,1018.18 51.219,1015.68C47.425,1013.17 43.246,1010.36 38.031,1010.36C34.947,1010.36 31.778,1010.8 28.781,1012.18L40.315,985.768L40,971.362ZM38.031,1014.36C41.754,1014.36 45.216,1016.52 49,1019.02C52.784,1021.51 56.882,1024.36 61.969,1024.36C64.774,1024.36 67.084,1024.16 69.406,1023.18C71.061,1022.47 72.665,1021.41 74.5,1019.89C74.5,1019.89 78.272,1028.42 80.554,1033.88C81.324,1035.73 83.276,1039.9 80.687,1041.99C79.78,1042.72 78.376,1043.36 75.999,1043.36L23.999,1043.36C21.622,1043.36 20.168,1042.78 19.312,1041.99C18.503,1041.24 17.981,1040.27 17.775,1038.71C17.643,1037.72 18.202,1035.41 19.324,1032.65C21.59,1027.06 25.655,1019.52 25.655,1019.52C29.388,1015.11 33.218,1014.36 38.03,1014.36L38.031,1014.36Z" style="fill:rgb(77,77,77);fill-rule:nonzero;stroke:rgb(77,77,77);stroke-width:1.94px;stroke-linecap:butt;stroke-miterlimit:1.41421;"/>
    </g>
    <g transform="matrix(1.11632,0,0,1.22871,25.3768,-1.80574)">
        <rect x="14.088" y="8.654" width="55.355" height="14.886" style="fill:rgb(77,77,77);stroke:rgb(77,77,77);stroke-width:3.93px;"/>
    </g>
    <g transform="matrix(0.926333,0,0,0.926333,37.4099,23.7014)">
        <circle cx="49.851" cy="57.381" r="7.252" style="fill:rgb(29,155,240);stroke:rgb(77,77,77);stroke-width:3.73px;stroke-miterlimit:1.5;"/>
    </g>
    <g transform="matrix(0.789057,0,0,0.789057,28.7978,14.5588)">
        <circle cx="49.851" cy="57.381" r="7.252" style="fill:rgb(29,155,240);stroke:rgb(77,77,77);stroke-width:4.38px;stroke-miterlimit:1.5;"/>
    </g>
</svg>
