<?xml version="1.0" encoding="UTF-8" standalone="no"?><!DOCTYPE svg PUBLIC "-//W3C//DTD SVG 1.1//EN" "http://www.w3.org/Graphics/SVG/1.1/DTD/svg11.dtd"><svg width="319px" height="319px" viewBox="0 0 319 319" version="1.1" xmlns="http://www.w3.org/2000/svg" xmlns:xlink="http://www.w3.org/1999/xlink" xml:space="preserve" style="fill-rule:evenodd;clip-rule:evenodd;stroke-linejoin:round;stroke-miterlimit:1.41421;"><g id="Vial"><path id="Outer" d="M192.056,88.808l0,-7.294c50.934,13.957 88.301,59.854 88.301,114.322c0,65.543 -54.11,118.677 -120.857,118.677c-66.747,0 -120.857,-53.134 -120.857,-118.677c0,-53.83 36.497,-99.289 86.518,-113.819l0,7.33c-46.023,14.297 -79.382,56.567 -79.382,106.489c0,61.673 50.914,111.67 113.721,111.67c62.807,0 113.721,-49.997 113.721,-111.67c0,-50.564 -34.223,-93.279 -81.165,-107.028Z" style="fill:#4d4d4d;"/><path id="Inner" d="M80.801,139.323l157.544,0.047c28.831,40.766 21.185,97.949 -18.635,130.74c-41.675,34.318 -102.811,28.924 -136.55,-12.048c-28.543,-34.662 -28.334,-83.683 -2.359,-118.739Zm123.347,95.573c8.564,-7.052 9.886,-19.594 2.953,-28.013c-6.933,-8.42 -19.496,-9.528 -28.06,-2.476c-8.563,7.052 -9.885,19.594 -2.952,28.013c6.933,8.419 19.495,9.528 28.059,2.476Zm-89.16,-47.605c4.753,-3.915 5.49,-10.872 1.646,-15.54c-3.844,-4.668 -10.813,-5.279 -15.567,-1.365c-4.753,3.914 -5.49,10.872 -1.646,15.54c3.844,4.668 10.813,5.279 15.567,1.365Zm11.088,63.073c4.754,-3.914 5.491,-10.872 1.647,-15.54c-3.844,-4.668 -10.814,-5.279 -15.567,-1.365c-4.754,3.915 -5.491,10.872 -1.647,15.54c3.844,4.668 10.814,5.279 15.567,1.365Z" style="fill:#4d4d4d;"/><path id="Neck" d="M125.161,89.37l0,-25.763l0,-5.255l7.135,0l0,29.053c-2.409,0.58 -4.789,1.237 -7.135,1.965Zm61.542,-1.966l0,-23.798l0,-5.255l7.136,0l0,31.019c-2.347,-0.729 -4.726,-1.385 -7.136,-1.966Z" style="fill:#4d4d4d;fill-rule:nonzero;"/><path id="Rim" d="M101.078,34.266l7.136,-7.007l0,37.662l-7.136,-7.007l117.735,0l-7.135,7.007l0,-37.662l7.135,7.007l-117.735,0Zm117.735,-7.007l0,37.662l-117.735,0l0,-37.662l117.735,0Z" style="fill:#4d4d4d;fill-rule:nonzero;"/><rect id="Cork" x="130.512" y="4.487" width="58.867" height="26.275" style="fill:#4d4d4d;"/></g></svg>