<?xml version="1.0" encoding="UTF-8" standalone="no"?><!DOCTYPE svg PUBLIC "-//W3C//DTD SVG 1.1//EN" "http://www.w3.org/Graphics/SVG/1.1/DTD/svg11.dtd"><svg width="144px" height="144px" viewBox="0 0 144 144" version="1.1" xmlns="http://www.w3.org/2000/svg" xmlns:xlink="http://www.w3.org/1999/xlink" xml:space="preserve" style="fill-rule:evenodd;clip-rule:evenodd;stroke-linecap:round;stroke-linejoin:round;stroke-miterlimit:1;"><path d="M36.378,92.573l-19.141,31.642l7.662,8.508l13.093,2.902l77.93,-0.823l10.019,-4.546l-3.579,-7.205l-12.754,-29.869l-12.669,7.895l-11.572,0.256l-12.97,-7.135l-15.607,-7.251l-9.953,0.853" style="fill:#1883c0;stroke:#4d4d4d;stroke-width:1.15px;"/><path d="M94.693,27.118l-45.387,0l0.594,19.898l-32.891,67.865c0,0 -3.365,6.952 -3.365,10.312c0,3.712 1.359,7.198 4.255,9.606c2.897,2.407 7.013,3.568 11.955,3.568l84.291,0c4.941,0 9.058,-1.161 11.954,-3.568c2.897,-2.408 4.308,-5.894 4.255,-9.606c-0.056,-3.929 -3.647,-10.247 -3.647,-10.247l-32.607,-67.93l0.593,-19.898Zm-38.903,0l32.419,0l-0.609,20.717l21.479,44.651c-3.392,2.663 -5.928,4.225 -8.155,5.077c-2.673,1.023 -5.268,1.281 -9.524,1.281c-5.741,0 -11.275,-3.197 -17.425,-6.861c-6.15,-3.665 -12.924,-7.777 -21.377,-7.777c-5,0 -10.137,0.635 -14.994,2.653l18.696,-38.653l-0.51,-21.088Zm-3.192,62.943c6.035,0 11.647,3.162 17.78,6.816c6.134,3.655 12.776,7.822 21.022,7.822c4.547,0 8.292,-0.298 12.056,-1.738c2.683,-1.026 5.282,-2.579 8.257,-4.803c0,0 6.115,12.489 9.813,20.479c1.249,2.698 4.412,8.81 0.216,11.863c-1.47,1.069 -3.745,2.012 -7.599,2.012l-84.29,0c-3.854,0 -6.21,-0.858 -7.599,-2.012c-1.31,-1.091 -2.157,-2.512 -2.491,-4.794c-0.214,-1.457 0.692,-4.829 2.511,-8.878c3.673,-8.18 10.263,-19.22 10.263,-19.22c6.051,-6.448 12.259,-7.547 20.06,-7.547l0.001,0Z" style="fill:#4d4d4d;fill-rule:nonzero;stroke:#4d4d4d;stroke-width:3px;stroke-linecap:butt;stroke-miterlimit:1.41421;"/><rect x="41.103" y="8.828" width="61.793" height="18.29" style="fill:#4d4d4d;stroke:#4d4d4d;stroke-width:4.61px;"/><circle cx="83.589" cy="76.856" r="6.718" style="fill:#1883c0;stroke:#4d4d4d;stroke-width:3.46px;stroke-miterlimit:1.5;"/><circle cx="68.133" cy="59.836" r="5.722" style="fill:#1883c0;stroke:#4d4d4d;stroke-width:3.46px;stroke-miterlimit:1.5;"/></svg>